# xmcd CD database file
#
# Track frame offsets:
#	150
#	13560
#	31208
#	50118
#	69731
#	86805
#	104412
#	118667
#	132438
#	149751
#	165228
#	182882
#	198144
#	215523
#	229507
#	243254
#	258890
#	275296
#
# Disc length: 3853 seconds
#
# Revision: 1
# Processed by: cddbd v1.5.2PL0 Copyright (c) Steve Scherf et al.
# Submitted via: CDex 1.50Beta7
#
DISCID=030f0b12
DTITLE=Gunter Gabriel - Golden Stars - Gunter Gabriel
DYEAR=2000
DGENRE=Country
TTITLE0=Hey Boss Ich Brauch Mehr Geld
TTITLE1=Komm Unter Meine Decke
TTITLE2=Intercity Lie Nr.4
TTITLE3=Er Ist Ein Kerl
TTITLE4=Hey, Yvonne
TTITLE5=Ich Bin CB-Funker
TTITLE6=Deutschland Ist...
TTITLE7=Papa Trinkt Bier
TTITLE8=Mit Dem Hammer In Der Hand
TTITLE9=Ich Werd' Gesucht
TTITLE10=Asphalt Fieber
TTITLE11=Lucille
TTITLE12=Hallo Mein Freund
TTITLE13=Mein Laster Ist Mein Laster
TTITLE14=Hinrichs Nest
TTITLE15=Hurra Wir Leben Noch
TTITLE16=Willy Klein, Der Fernsehmann
TTITLE17=Ein Ehrenwertes Haus
EXTD=YEAR: 2000
EXTT0=
EXTT1=
EXTT2=
EXTT3=
EXTT4=
EXTT5=
EXTT6=
EXTT7=
EXTT8=
EXTT9=
EXTT10=
EXTT11=
EXTT12=
EXTT13=
EXTT14=
EXTT15=
EXTT16=
EXTT17=
PLAYORDER=
